<?xml version="1.0" standalone="no"?>
<!DOCTYPE svg PUBLIC "-//W3C//DTD SVG 20010904//EN"
 "http://www.w3.org/TR/2001/REC-SVG-20010904/DTD/svg10.dtd">
<svg version="1.0" xmlns="http://www.w3.org/2000/svg"
 width="1024.000000pt" height="1024.000000pt" viewBox="0 0 1024.000000 1024.000000"
 preserveAspectRatio="xMidYMid meet">

<g transform="translate(0.000000,1024.000000) scale(0.100000,-0.100000)"
fill="#000000" stroke="none">
<path d="M3747 6510 c-72 -14 -130 -76 -141 -154 -10 -64 -5 -728 6 -748 5
-10 16 -18 24 -18 9 0 60 42 115 93 l100 92 307 5 307 5 41 27 c23 15 52 42
65 60 23 32 24 40 27 253 2 121 0 235 -3 253 -8 42 -59 100 -110 123 -36 17
-71 18 -370 18 -181 -1 -347 -5 -368 -9z"/>
<path d="M2974 5865 l-24 -24 2 -737 c3 -715 4 -736 22 -750 14 -10 50 -14
123 -14 154 0 143 -24 143 331 0 202 4 304 12 333 17 55 91 131 143 145 113
31 215 -13 261 -113 23 -50 24 -56 24 -353 0 -370 -11 -343 145 -343 156 0
145 -27 145 348 0 344 -7 401 -62 505 -118 224 -385 309 -610 196 l-58 -29 0
240 0 241 -25 24 c-22 23 -32 25 -120 25 -89 0 -98 -2 -121 -25z"/>
<path d="M5362 5714 l-22 -15 0 -512 c0 -551 2 -572 53 -660 34 -58 116 -133
174 -159 39 -18 72 -22 179 -26 127 -4 132 -3 153 19 18 20 21 35 21 120 0 75
-4 101 -16 113 -18 18 -13 17 -116 19 -87 2 -121 19 -150 78 -16 29 -18 64
-18 247 l0 212 128 0 c168 1 166 -1 170 131 6 148 6 148 -161 151 l-132 3 -3
130 c-3 168 -1 165 -136 165 -76 0 -107 -4 -124 -16z"/>
<path d="M6810 5710 c-19 -19 -20 -33 -20 -515 0 -323 4 -512 11 -547 25 -117
102 -218 211 -275 48 -25 64 -28 183 -31 169 -5 170 -4 170 139 0 127 -4 132
-117 133 -91 1 -123 14 -155 63 -16 23 -18 57 -21 250 l-4 223 129 0 c91 0
134 4 147 13 16 12 18 28 17 128 -1 93 -5 116 -18 127 -11 8 -58 12 -145 12
l-128 0 0 133 c0 170 3 167 -138 167 -89 0 -105 -3 -122 -20z"/>
<path d="M2215 5440 c-295 -63 -481 -325 -444 -626 43 -343 372 -562 713 -474
112 29 185 71 266 156 67 71 88 109 77 138 -9 23 -169 126 -194 126 -14 0 -47
-22 -82 -54 -81 -74 -112 -89 -203 -94 -69 -4 -84 -2 -132 22 -268 131 -177
530 120 528 82 -1 136 -25 214 -97 48 -44 67 -55 84 -51 40 10 178 100 188
122 30 66 -156 236 -311 285 -73 23 -230 34 -296 19z"/>
<path d="M4515 5438 c-27 -5 -88 -27 -133 -49 -219 -106 -338 -338 -303 -595
31 -225 217 -422 439 -465 114 -22 265 1 370 55 26 13 32 14 32 3 0 -8 8 -22
19 -31 15 -14 36 -16 121 -14 97 3 104 4 120 28 15 23 16 70 11 533 -5 436 -8
509 -21 517 -18 11 -210 13 -226 2 -6 -4 -16 -17 -23 -29 l-11 -22 -63 29
c-101 48 -213 61 -332 38z m230 -302 c62 -28 128 -101 149 -163 25 -74 21
-140 -15 -212 -44 -89 -119 -139 -218 -148 -110 -10 -211 42 -265 137 -28 49
-31 64 -31 135 0 70 4 87 29 133 71 127 223 178 351 118z"/>
<path d="M7853 5436 c-143 -33 -293 -146 -360 -272 -89 -168 -93 -365 -11
-532 40 -81 158 -204 235 -245 163 -87 370 -87 536 0 120 63 247 208 220 252
-16 27 -163 121 -189 121 -16 0 -46 -20 -87 -58 -80 -75 -133 -96 -224 -90
-81 5 -133 28 -189 83 -99 100 -97 278 6 384 62 64 93 76 190 76 73 0 92 -4
135 -27 28 -14 68 -45 90 -67 53 -56 82 -55 181 6 83 52 101 74 86 113 -29 76
-186 201 -302 240 -83 28 -230 35 -317 16z"/>
<path d="M6537 5429 c-47 -7 -106 -27 -194 -66 -8 -3 -13 3 -13 15 0 43 -24
52 -140 52 -85 0 -112 -3 -124 -16 -13 -13 -16 -47 -16 -212 0 -108 -3 -334
-6 -502 -6 -303 -6 -305 16 -332 21 -27 24 -28 124 -28 158 0 146 -26 146 317
0 315 4 340 58 403 45 54 97 79 183 90 39 4 77 13 83 20 17 17 21 221 4 242
-18 23 -52 28 -121 17z"/>
</g>
</svg>
